<svg width="103" height="33" viewBox="0 0 103 33" fill="none" xmlns="http://www.w3.org/2000/svg">
<g id="logo 1" clip-path="url(#clip0_5_72)">
<g id="SvgjsG1245">
<path id="Vector" d="M33.7566 0H2.84266C1.2727 0 0 1.27093 0 2.83871V30.1613C0 31.7291 1.2727 33 2.84266 33H33.7566C35.3265 33 36.5992 31.7291 36.5992 30.1613V2.83871C36.5992 1.27093 35.3265 0 33.7566 0Z" fill="#537FE7"/>
</g>
<g id="SvgjsG1246">
<g id="Group">
<g id="Group_2">
<g id="Group_3">
<path id="Vector_2" d="M14.2179 10.3954C13.2293 10.4177 12.3842 11.0641 11.6827 12.3316C10.9461 13.7582 10.5825 15.344 10.5889 17.0891C10.6017 17.2993 10.624 17.3184 10.6591 17.1496C10.9556 15.8663 11.2649 14.8632 11.587 14.1371C11.9027 13.4079 12.2535 12.8092 12.6362 12.3475C13.5163 11.3253 14.2784 11.1597 14.9258 11.8507C15.6337 12.6659 16.01 14.0416 16.0546 15.9714C16.0164 18.5667 15.6752 20.5283 15.031 21.8626C14.2242 23.4867 13.3951 24.028 12.5533 23.4803C11.4053 22.5664 10.7675 20.5411 10.6399 17.4108C10.5953 17.3025 10.5538 17.3821 10.5219 17.6496C10.4614 17.9744 10.4199 18.3311 10.3944 18.71C10.2987 20.4105 10.5251 21.8531 11.0704 23.0377C11.6285 24.1618 12.3715 24.7318 13.2995 24.7509C14.3008 24.735 15.2128 24.0822 16.0387 22.7861C16.8614 21.4327 17.3908 19.7832 17.6236 17.8311C17.7097 15.7548 17.4291 13.9875 16.7849 12.529C16.1344 11.1406 15.2829 10.4273 14.2338 10.389" fill="#F9F9F9"/>
</g>
<g id="Group_4">
<path id="Vector_3" d="M21.5523 9.62477C21.0389 8.78408 20.0567 8.37328 18.6058 8.39876C17.0017 8.47519 15.4424 8.95285 13.9309 9.83176C13.7555 9.9464 13.7491 9.97825 13.9117 9.92411C15.1745 9.53879 16.1981 9.30314 16.9858 9.22035C17.7766 9.128 18.4686 9.13118 19.0618 9.23309C20.3883 9.48466 20.9145 10.061 20.6371 10.9654C20.2831 11.9845 19.2786 12.9971 17.6268 14.0034C15.3563 15.2676 13.4844 15.9555 12.008 16.0637C10.1935 16.1784 9.31335 15.7325 9.36757 14.7294C9.59398 13.2773 11.029 11.7138 13.6789 10.0356C13.7491 9.94322 13.6598 9.94959 13.4143 10.0547C13.1017 10.1661 12.7733 10.3062 12.4289 10.475C10.9078 11.2425 9.76618 12.1596 9.0136 13.2232C8.31842 14.2677 8.19406 15.1976 8.6405 16.0064C9.15391 16.863 10.1775 17.3248 11.7146 17.3916C13.2995 17.4267 14.9959 17.0605 16.804 16.2835C18.6472 15.3186 20.0407 14.1945 20.9815 12.9079C21.8616 11.6501 22.0529 10.5578 21.5618 9.63114" fill="#F9F9F9"/>
</g>
<g id="Group_5">
<path id="Vector_4" d="M25.8892 15.5829C26.3611 14.7167 26.2272 13.6627 25.4778 12.4207C24.6072 11.0705 23.4146 9.96233 21.8967 9.09616C21.7085 9.00062 21.6798 9.01018 21.8074 9.12482C22.7736 10.0228 23.4879 10.7935 23.9567 11.4304C24.4318 12.0704 24.7762 12.6691 24.9835 13.2328C25.43 14.5065 25.1908 15.2485 24.2692 15.4587C23.2073 15.6625 21.8297 15.2995 20.13 14.376C17.901 13.0449 16.3672 11.7679 15.5317 10.5483C14.5272 9.03565 14.473 8.05166 15.369 7.59628C16.7371 7.06129 18.8098 7.52304 21.5905 8.97833C21.7053 8.99107 21.6575 8.91783 21.4407 8.75861C21.1887 8.54206 20.9017 8.3287 20.5829 8.11535C19.1574 7.1823 17.7926 6.65687 16.4915 6.53586C15.2383 6.45625 14.3709 6.81291 13.8894 7.60583C13.4015 8.47837 13.5131 9.59612 14.2242 10.9559C14.9864 12.3443 16.1535 13.6276 17.7288 14.8027C19.4859 15.9141 21.16 16.5573 22.7449 16.7261C24.2756 16.8567 25.3215 16.4777 25.8764 15.5892" fill="#F9F9F9"/>
</g>
<g id="Group_6">
<path id="Vector_5" d="M22.8916 22.3116C23.8802 22.2893 24.7252 21.6429 25.4268 20.3755C26.1634 18.9488 26.5269 17.363 26.5206 15.6179C26.5078 15.4077 26.4855 15.3886 26.4504 15.5574C26.1538 16.8407 25.8445 17.8438 25.5224 18.5699C25.2067 19.2991 24.856 19.8978 24.4733 20.3595C23.5932 21.3818 22.831 21.5473 22.1837 20.8563C21.4757 20.0411 21.0995 18.6654 21.0548 16.7356C21.0931 14.1403 21.4343 12.1787 22.0784 10.8444C22.8852 9.22034 23.7143 8.67899 24.5562 9.22671C25.7042 10.1406 26.342 12.166 26.4695 15.2963C26.5142 15.4045 26.5556 15.3249 26.5875 15.0574C26.6481 14.7326 26.6896 14.376 26.7151 13.997C26.8107 12.2965 26.5843 10.854 26.039 9.66935C25.481 8.54524 24.738 7.97522 23.81 7.95612C22.8087 7.97204 21.8967 8.62485 21.0708 9.92092C20.248 11.2743 19.7187 12.9239 19.4859 14.8759C19.3998 16.9522 19.6804 18.7196 20.3246 20.178C20.9751 21.5665 21.8265 22.2798 22.8757 22.318" fill="#F9F9F9"/>
</g>
<g id="Group_7">
<path id="Vector_6" d="M11.2203 17.1242C10.7483 17.9903 10.8823 19.0444 11.6317 20.2863C12.5022 21.6365 13.6949 22.7447 15.2128 23.6109C15.4009 23.7064 15.4296 23.6969 15.3021 23.5822C14.3358 22.6842 13.6215 21.9136 13.1528 21.2767C12.6776 20.6366 12.3332 20.0379 12.1259 19.4743C11.6795 18.2005 11.9187 17.4585 12.8403 17.2483C13.9022 17.0445 15.2797 17.4076 16.9794 18.3311C19.2084 19.6622 20.7423 20.9391 21.5778 22.1588C22.5823 23.6714 22.6365 24.6554 21.7404 25.1108C20.3724 25.6457 18.2996 25.184 15.5189 23.7287C15.4041 23.716 15.4519 23.7892 15.6688 23.9484C15.9207 24.165 16.2077 24.3783 16.5266 24.5917C17.952 25.5247 19.3169 26.0502 20.6179 26.1712C21.8712 26.2508 22.7385 25.8941 23.2201 25.1012C23.708 24.2287 23.5963 23.1109 22.8852 21.7512C22.1231 20.3627 20.956 19.0794 19.3806 17.9043C17.6236 16.793 15.9494 16.1497 14.3645 15.9809C12.8339 15.8504 11.7879 16.2293 11.2331 17.1178" fill="#F9F9F9"/>
</g>
<g id="Group_8">
<path id="Vector_7" d="M15.5572 23.0823C16.0706 23.923 17.0528 24.3337 18.5037 24.3083C20.1077 24.2318 21.6671 23.7542 23.1786 22.8753C23.354 22.7606 23.3604 22.7288 23.1977 22.7829C21.9349 23.1682 20.9113 23.4039 20.1237 23.4867C19.3328 23.579 18.6408 23.5758 18.0477 23.4739C16.7211 23.2224 16.195 22.646 16.4724 21.7416C16.8264 20.7226 17.8309 19.7099 19.4827 18.7036C21.7532 17.4394 23.6251 16.7516 25.1015 16.6433C26.916 16.5287 27.7961 16.9745 27.7419 17.9776C27.5219 19.4265 26.0869 20.9901 23.4337 22.6683C23.3636 22.7606 23.4529 22.7543 23.6984 22.6492C24.0109 22.5377 24.3394 22.3976 24.6838 22.2288C26.2049 21.4614 27.3465 20.5442 28.0991 19.4806C28.7942 18.4361 28.9186 17.5063 28.4722 16.6974C27.9587 15.8408 26.9351 15.3791 25.4013 15.3122C23.8164 15.2772 22.1199 15.6434 20.3118 16.4204C18.4686 17.3853 17.0751 18.5094 16.1344 19.7959C15.2542 21.0538 15.0629 22.146 15.554 23.0727" fill="#F9F9F9"/>
</g>
</g>
</g>
</g>
<g id="SvgjsG1247">
<path id="Vector_8" d="M45.2984 22.8143H43.7575C43.7231 22.6424 43.7059 22.4647 43.7059 22.2813C43.7059 22.0979 43.7231 21.9203 43.7575 21.7483H48.1047C48.1392 21.9203 48.1564 22.0979 48.1564 22.2813C48.1564 22.4647 48.1392 22.6424 48.1047 22.8143H46.5638V27.9291L46.2539 27.9549C46.1507 27.9664 46.0502 27.9721 45.9527 27.9721C45.8551 27.9721 45.7504 27.9692 45.6385 27.9635C45.5265 27.9578 45.4132 27.9463 45.2984 27.9291V22.8143ZM51.4964 28.0323C51.0316 28.0323 50.6298 27.952 50.2913 27.7916C49.9527 27.6311 49.6743 27.409 49.4562 27.1254C49.2382 26.8417 49.076 26.5064 48.9699 26.1196C48.8637 25.7327 48.8106 25.3101 48.8106 24.8516C48.8106 24.3931 48.8637 23.9676 48.9699 23.5751C49.076 23.1825 49.2382 22.8429 49.4562 22.5564C49.6743 22.2698 49.9527 22.0463 50.2913 21.8859C50.6298 21.7254 51.0316 21.6452 51.4964 21.6452C51.9613 21.6452 52.363 21.7254 52.7016 21.8859C53.0402 22.0463 53.3185 22.2698 53.5366 22.5564C53.7547 22.8429 53.9168 23.1825 54.023 23.5751C54.1291 23.9676 54.1822 24.3931 54.1822 24.8516C54.1822 25.3101 54.1291 25.7327 54.023 26.1196C53.9168 26.5064 53.7547 26.8417 53.5366 27.1254C53.3185 27.409 53.0402 27.6311 52.7016 27.7916C52.363 27.952 51.9613 28.0323 51.4964 28.0323ZM51.4964 26.9835C52.3859 26.9835 52.8307 26.2729 52.8307 24.8516C52.8307 24.141 52.7231 23.608 52.5079 23.2527C52.2927 22.8974 51.9584 22.7197 51.505 22.7197C50.604 22.7197 50.1535 23.4303 50.1535 24.8516C50.1535 26.2729 50.6012 26.9835 51.4964 26.9835ZM58.3228 22.8143H56.7819C56.7475 22.6424 56.7303 22.4647 56.7303 22.2813C56.7303 22.0979 56.7475 21.9203 56.7819 21.7483H61.1291C61.1636 21.9203 61.1808 22.0979 61.1808 22.2813C61.1808 22.4647 61.1636 22.6424 61.1291 22.8143H59.5882V27.9291L59.2783 27.9549C59.175 27.9664 59.0746 27.9721 58.977 27.9721C58.8795 27.9721 58.7748 27.9692 58.6628 27.9635C58.5509 27.9578 58.4376 27.9463 58.3228 27.9291V22.8143ZM61.9986 21.7483C62.2109 21.7139 62.4204 21.6968 62.627 21.6968C62.8336 21.6968 63.0459 21.7139 63.264 21.7483V24.1725H65.3386V21.7483C65.5509 21.7139 65.7604 21.6968 65.967 21.6968C66.1736 21.6968 66.3859 21.7139 66.604 21.7483V27.9291C66.3859 27.9635 66.1736 27.9807 65.967 27.9807C65.7604 27.9807 65.5509 27.9635 65.3386 27.9291V25.2556H63.264V27.9291C63.0459 27.9635 62.8336 27.9807 62.627 27.9807C62.4204 27.9807 62.2109 27.9635 61.9986 27.9291V21.7483ZM67.8092 21.7483H71.3214C71.3558 21.9203 71.373 22.0979 71.373 22.2813C71.373 22.4647 71.3558 22.6424 71.3214 22.8143H69.066V24.1553H70.8565C70.891 24.3387 70.9082 24.5192 70.9082 24.6969C70.9082 24.8745 70.891 25.0522 70.8565 25.2299H69.066V26.8632H71.3816C71.4161 27.0351 71.4333 27.2127 71.4333 27.3961C71.4333 27.5795 71.4161 27.7572 71.3816 27.9291H67.8092V21.7483ZM74.274 21.7225C74.538 21.6996 74.8049 21.681 75.0746 21.6667C75.3443 21.6523 75.6198 21.6452 75.901 21.6452C76.1822 21.6452 76.4706 21.6738 76.7661 21.7311C77.0617 21.7884 77.3286 21.8959 77.5667 22.0535C77.8049 22.2111 77.9986 22.4303 78.1478 22.7111C78.297 22.9919 78.3716 23.3558 78.3716 23.8029C78.3716 24.2499 78.297 24.6123 78.1478 24.8903C77.9986 25.1682 77.8063 25.3875 77.571 25.5479C77.3357 25.7084 77.0732 25.8173 76.7834 25.8746C76.4935 25.9319 76.208 25.9605 75.9268 25.9605L75.7202 25.9519C75.6514 25.9519 75.5882 25.9491 75.5309 25.9434V27.9291C75.4218 27.9463 75.3156 27.9578 75.2123 27.9635C75.109 27.9692 75.01 27.9721 74.9154 27.9721C74.8207 27.9721 74.7188 27.9692 74.6098 27.9635C74.5007 27.9578 74.3888 27.9463 74.274 27.9291V21.7225ZM75.5309 24.9032C75.5997 24.9147 75.6657 24.9204 75.7288 24.9204H75.944C76.0875 24.9204 76.2281 24.9018 76.3659 24.8645C76.5036 24.8273 76.6255 24.7657 76.7317 24.6797C76.8379 24.5937 76.9225 24.4805 76.9857 24.3401C77.0488 24.1997 77.0803 24.0249 77.0803 23.8158C77.0803 23.6066 77.0488 23.4289 76.9857 23.2828C76.9225 23.1366 76.8379 23.0192 76.7317 22.9303C76.6255 22.8415 76.5036 22.7785 76.3659 22.7412C76.2281 22.704 76.0875 22.6853 75.944 22.6853H75.7719C75.7145 22.6911 75.6341 22.6997 75.5309 22.7111V24.9032ZM79.2927 21.7483H82.8049C82.8393 21.9203 82.8565 22.0979 82.8565 22.2813C82.8565 22.4647 82.8393 22.6424 82.8049 22.8143H80.5495V24.1553H82.34C82.3745 24.3387 82.3917 24.5192 82.3917 24.6969C82.3917 24.8745 82.3745 25.0522 82.34 25.2299H80.5495V26.8632H82.8651C82.8996 27.0351 82.9168 27.2127 82.9168 27.3961C82.9168 27.5795 82.8996 27.7572 82.8651 27.9291H79.2927V21.7483ZM86.3859 28.0323C85.9211 28.0323 85.5194 27.952 85.1808 27.7916C84.8422 27.6311 84.5638 27.409 84.3458 27.1254C84.1277 26.8417 83.9656 26.5064 83.8594 26.1196C83.7532 25.7327 83.7001 25.3101 83.7001 24.8516C83.7001 24.3931 83.7532 23.9676 83.8594 23.5751C83.9656 23.1825 84.1277 22.8429 84.3458 22.5564C84.5638 22.2698 84.8422 22.0463 85.1808 21.8859C85.5194 21.7254 85.9211 21.6452 86.3859 21.6452C86.8508 21.6452 87.2525 21.7254 87.5911 21.8859C87.9297 22.0463 88.208 22.2698 88.4261 22.5564C88.6442 22.8429 88.8063 23.1825 88.9125 23.5751C89.0187 23.9676 89.0717 24.3931 89.0717 24.8516C89.0717 25.3101 89.0187 25.7327 88.9125 26.1196C88.8063 26.5064 88.6442 26.8417 88.4261 27.1254C88.208 27.409 87.9297 27.6311 87.5911 27.7916C87.2525 27.952 86.8508 28.0323 86.3859 28.0323ZM86.3859 26.9835C87.2755 26.9835 87.7202 26.2729 87.7202 24.8516C87.7202 24.141 87.6126 23.608 87.3974 23.2527C87.1822 22.8974 86.8479 22.7197 86.3946 22.7197C85.4935 22.7197 85.043 23.4303 85.043 24.8516C85.043 26.2729 85.4907 26.9835 86.3859 26.9835ZM90.1133 21.7225C90.3773 21.6996 90.6442 21.681 90.9139 21.6667C91.1836 21.6523 91.4591 21.6452 91.7403 21.6452C92.0215 21.6452 92.3099 21.6738 92.6055 21.7311C92.901 21.7884 93.1679 21.8959 93.406 22.0535C93.6442 22.2111 93.8379 22.4303 93.9871 22.7111C94.1363 22.9919 94.2109 23.3558 94.2109 23.8029C94.2109 24.2499 94.1363 24.6123 93.9871 24.8903C93.8379 25.1682 93.6456 25.3875 93.4103 25.5479C93.175 25.7084 92.9125 25.8173 92.6227 25.8746C92.3329 25.9319 92.0473 25.9605 91.7661 25.9605L91.5595 25.9519C91.4907 25.9519 91.4275 25.9491 91.3702 25.9434V27.9291C91.2611 27.9463 91.155 27.9578 91.0517 27.9635C90.9484 27.9692 90.8494 27.9721 90.7547 27.9721C90.66 27.9721 90.5581 27.9692 90.4491 27.9635C90.34 27.9578 90.2281 27.9463 90.1133 27.9291V21.7225ZM91.3702 24.9032C91.439 24.9147 91.505 24.9204 91.5681 24.9204H91.7834C91.9268 24.9204 92.0674 24.9018 92.2052 24.8645C92.3429 24.8273 92.4649 24.7657 92.571 24.6797C92.6772 24.5937 92.7618 24.4805 92.825 24.3401C92.8881 24.1997 92.9197 24.0249 92.9197 23.8158C92.9197 23.6066 92.8881 23.4289 92.825 23.2828C92.7618 23.1366 92.6772 23.0192 92.571 22.9303C92.4649 22.8415 92.3429 22.7785 92.2052 22.7412C92.0674 22.704 91.9268 22.6853 91.7834 22.6853H91.6112C91.5538 22.6911 91.4735 22.6997 91.3702 22.7111V24.9032ZM95.132 21.7483C95.3443 21.7139 95.5495 21.6968 95.7475 21.6968C95.9455 21.6968 96.1535 21.7139 96.3716 21.7483V26.846H98.5151C98.5323 26.9434 98.5438 27.0365 98.5495 27.1254C98.5552 27.2142 98.5581 27.3016 98.5581 27.3875C98.5581 27.4735 98.5552 27.5609 98.5495 27.6497C98.5438 27.7386 98.5323 27.8317 98.5151 27.9291H95.132V21.7483ZM99.3759 21.7483H102.888C102.923 21.9203 102.94 22.0979 102.94 22.2813C102.94 22.4647 102.923 22.6424 102.888 22.8143H100.633V24.1553H102.423C102.458 24.3387 102.475 24.5192 102.475 24.6969C102.475 24.8745 102.458 25.0522 102.423 25.2299H100.633V26.8632H102.948C102.983 27.0351 103 27.2127 103 27.3961C103 27.5795 102.983 27.7572 102.948 27.9291H99.3759V21.7483Z" fill="#181823"/>
</g>
<g id="SvgjsG1249">
<path id="Vector_9" d="M54.3659 5.32257L47.9699 18.0968H60.7618L54.3659 5.32257ZM54.3659 7.7032L57.971 14.9032H53.1442L53.6772 13.8386H56.2458L54.3659 10.0832L51.4197 15.9678H58.5039L59.0368 17.0322H49.6949L54.3659 7.7032Z" fill="#181823"/>
</g>
<g id="SvgjsG1250">
<path id="Vector_10" d="M64.8739 13.7262C64.8232 11.8025 64.8401 9.76063 64.857 7.85378C64.857 7.26317 64.8232 6.62193 64.8232 6.03131C64.8232 5.39007 64.5697 5.42382 64.2318 5.40694C63.7417 5.39007 63.522 5.39007 63.032 5.39007C62.7109 5.3732 62.5757 5.45757 62.5757 5.77819C62.5757 7.43192 62.5251 12.1062 62.542 12.7812C62.5588 13.4562 62.6264 16.5274 62.5926 17.2024C62.5757 17.4386 62.5926 17.6749 62.6095 17.9111C62.6264 17.9955 62.6771 18.0799 62.8123 18.0799C63.37 18.0461 63.8938 18.0461 64.4515 18.0293C64.6542 18.0124 64.8232 17.9618 64.9077 17.7424C64.9246 17.6243 64.8739 14.5362 64.8739 13.7262ZM68.6929 16.8143C68.6929 16.3755 68.6929 13.6081 68.7098 13.3887C68.7267 13.3381 68.7605 13.2368 68.8281 13.2368C68.8957 13.2368 68.9295 13.2706 68.9464 13.3212C69.6223 14.6374 70.2137 15.9537 70.8221 17.2361C70.9066 17.4218 71.0925 17.9618 71.1432 18.0124C71.2107 18.1136 71.329 18.0799 71.4304 18.0799L73.2892 18.0968C73.5089 18.0968 73.5596 17.9618 73.5089 17.7761C73.3737 17.2699 72.4105 15.4812 72.1908 15.0424C72.0388 14.7049 71.0249 12.7475 70.9911 12.5956C70.9573 12.5281 71.2107 12.41 71.2445 12.3593C72.0557 11.6337 72.7823 10.8912 72.9344 9.76063C73.1033 8.6469 72.8499 7.43192 72.1232 6.53755C71.5656 5.87944 70.839 5.49132 69.9772 5.44069C69.4533 5.40694 68.9464 5.45757 68.4225 5.44069C67.9663 5.42382 67.6452 5.42382 67.0707 5.42382C66.8003 5.42382 66.6313 5.57569 66.6144 5.86256V6.06506C66.5806 7.36442 66.6144 8.66377 66.6313 9.94625C66.6313 11.9037 66.5975 17.0674 66.5975 17.8099C66.5975 18.0293 66.6313 18.0799 66.8341 18.0799C66.9524 18.0799 67.0876 18.0968 67.2059 18.0968C67.679 18.0968 67.9663 18.0799 68.4563 18.0799C68.8281 18.0799 68.6929 17.4724 68.6929 16.8143ZM68.6929 10.2331L68.7098 8.52877C68.7267 8.27565 68.6422 7.76941 68.8788 7.58379C69.1999 7.34754 69.8589 7.58379 70.1462 7.78629C70.9911 8.36003 70.9235 9.77751 70.4672 10.5706C70.2475 10.9419 69.8758 11.1612 69.4533 11.2794C69.1999 11.3469 68.7267 11.4312 68.7098 11.0262C68.7098 10.7562 68.6929 10.2331 68.6929 10.2331ZM75.2156 7.07755C75.1987 8.12378 75.3001 15.768 75.2832 16.3249C75.2832 16.848 75.2832 17.3711 75.3001 17.8943C75.3001 17.9786 75.3508 18.063 75.4353 18.063C76.6182 18.1136 77.7842 18.0124 78.967 18.0293C79.3557 18.0461 79.7444 18.0293 80.1161 18.0293C80.4879 18.0124 80.5217 17.8605 80.5048 17.5568C80.4879 17.0843 80.4879 16.6624 80.4879 16.2068C80.471 15.9705 80.3358 15.8862 80.133 15.8862C79.4402 15.903 78.7474 15.8693 78.0545 15.903C77.9362 15.9199 77.818 15.9199 77.6997 15.9199C77.4969 15.903 77.4462 15.8524 77.4293 15.633V15.3799C77.3786 13.9793 77.48 12.5281 77.48 11.1275C77.4631 9.94625 77.48 8.88314 77.4631 7.83691C77.4631 7.38129 77.4631 6.92567 77.4462 6.48693C77.4293 6.21693 77.4462 5.93006 77.3786 5.66007C77.3448 5.55882 77.2941 5.42382 77.1758 5.42382H75.5874C75.317 5.42382 75.2325 5.60944 75.2156 5.87944V7.07755ZM84.5266 13.7262C84.4759 11.8025 84.4928 9.76063 84.5097 7.85378C84.5097 7.26317 84.4759 6.62193 84.4759 6.03131C84.4759 5.39007 84.2224 5.42382 83.8844 5.40694C83.3944 5.39007 83.1747 5.39007 82.6846 5.39007C82.3636 5.3732 82.2284 5.45757 82.2284 5.77819C82.2284 7.43192 82.1777 12.1062 82.1946 12.7812C82.2115 13.4562 82.2791 16.5274 82.2453 17.2024C82.2284 17.4386 82.2453 17.6749 82.2622 17.9111C82.2791 17.9955 82.3298 18.0799 82.465 18.0799C83.0226 18.0461 83.5465 18.0461 84.1041 18.0293C84.3069 18.0124 84.4759 17.9618 84.5603 17.7424C84.5772 17.6243 84.5266 14.5362 84.5266 13.7262ZM93.4488 5.81194C93.4995 6.04819 93.4657 17.2868 93.4657 17.5736C93.4657 18.0799 93.2798 18.063 92.9419 18.063C92.4349 18.063 91.7252 18.1474 91.5731 17.9786C91.4379 17.8605 88.937 11.8362 88.5821 11.0769C88.5483 11.0094 88.4638 10.8406 88.3962 10.8744C88.3118 10.9081 88.3456 11.0262 88.3456 11.0937C88.3287 11.6844 88.43 16.7805 88.43 17.5905C88.43 17.9955 88.4131 18.063 88.0752 18.063H87.2303C87.0106 18.063 86.7402 18.0461 86.5205 18.0799C86.3516 18.0799 86.2671 18.0293 86.2502 17.8605V16.5274C86.284 15.1099 86.2502 6.7063 86.2502 6.08193C86.2502 5.54194 86.4023 5.44069 86.943 5.44069C87.3148 5.42382 87.6865 5.42382 88.0583 5.42382C88.1766 5.42382 88.2442 5.44069 88.3118 5.59257C88.768 6.65568 90.7113 11.5325 91.0155 12.1231C91.0662 12.2412 91.252 12.7137 91.3534 12.7643H91.3703C91.4379 12.6968 91.421 12.3593 91.421 12.2581C91.421 12.005 91.2858 6.08193 91.2858 5.96381C91.2858 5.79506 91.2352 5.64319 91.3196 5.52507C91.3703 5.45757 91.59 5.44069 91.6745 5.42382C92.1477 5.39007 92.7053 5.44069 93.1784 5.42382C93.415 5.42382 93.3981 5.59257 93.4488 5.81194ZM95.1893 14.6206H95.1724C95.1724 15.0424 95.1555 15.4812 95.1724 15.9199C95.1893 16.4599 95.2231 16.9999 95.2569 17.5399C95.2569 17.7255 95.3076 17.7761 95.4766 17.8099C95.8315 17.8943 96.1694 17.9111 96.5243 17.9111C97.4368 17.8774 98.3493 17.9449 99.2618 17.9111C99.6336 17.8943 99.8026 17.928 100.174 17.8605C100.512 17.793 100.631 17.6074 100.631 17.1012C100.597 16.7805 100.614 16.6455 100.614 16.2574C100.614 15.7005 100.225 15.5149 99.887 15.5318C99.6505 15.5487 98.5183 15.5149 98.062 15.5149C97.3016 15.5318 97.4199 15.633 97.4199 14.8399C97.4199 14.1987 97.4368 13.3718 97.4368 12.7137C97.4368 12.3593 97.4706 12.2412 97.8086 12.2412H99.9208C100.259 12.2918 100.495 12.0556 100.495 11.7012C100.495 11.3469 100.529 11.33 100.529 10.9756L100.478 10.4694C100.445 10.1825 100.343 10.0813 100.056 10.0813C99.8701 10.0813 99.6843 10.0981 99.4984 10.115C98.7718 10.1656 98.4338 10.0644 97.7241 10.115C97.4875 10.115 97.4537 10.0813 97.4368 9.86188C97.3692 9.20376 97.4368 8.47815 97.5044 7.82003C97.5213 7.55004 97.5889 7.49941 97.8424 7.48254L100.225 7.46566C100.546 7.43192 100.647 7.44879 100.631 7.12817C100.597 6.6388 100.647 6.13256 100.597 5.64319C100.563 5.3732 100.478 5.32257 100.174 5.32257C99.6674 5.33945 99.5491 5.33945 99.0421 5.3732C98.5352 5.39007 96.5074 5.39007 96.0173 5.39007C95.3076 5.39007 95.2569 5.33945 95.24 6.20006C95.2062 6.87505 95.2231 7.56691 95.2231 8.25878C95.2231 9.44001 95.1555 13.6756 95.1893 14.6206Z" fill="#181823"/>
</g>
</g>
<defs>
<clipPath id="clip0_5_72">
<rect width="103" height="33" fill="white"/>
</clipPath>
</defs>
</svg>
