<svg width="50" height="50" viewBox="0 0 50 50" fill="none" xmlns="http://www.w3.org/2000/svg">
<g id="194904_social media_youtube_icon 1" clip-path="url(#clip0_45_64)">
<g id="Page-1">
<g id="YouTube">
<path id="Oval-1" fill-rule="evenodd" clip-rule="evenodd" d="M50 25C50 11.1929 38.8071 0 25 0C11.1929 0 0 11.1929 0 25C0 38.8071 11.1929 50 25 50C38.8071 50 50 38.8071 50 25ZM47 25C47 12.8497 37.1503 3 25 3C12.8497 3 3 12.8497 3 25C3 37.1503 12.8497 47 25 47C37.1503 47 47 37.1503 47 25ZM36.7683 30.7655C36.4698 32.0627 35.4087 33.0192 34.1319 33.1619C31.1075 33.4998 28.0464 33.5015 24.9985 33.4998C21.9508 33.5015 18.8894 33.4998 15.8653 33.1619C14.5882 33.0192 13.5277 32.0627 13.2294 30.7655C12.8048 28.918 12.8048 26.9021 12.8048 25.0003C12.8048 23.0982 12.8098 21.082 13.2342 19.2345C13.5327 17.9373 14.5932 16.9805 15.87 16.8381C18.8945 16.5002 21.9556 16.4985 25.0035 16.5002C28.0512 16.4985 31.1125 16.5002 34.1367 16.8381C35.4138 16.9805 36.4749 17.9373 36.7731 19.2345C37.1978 21.082 37.1952 23.0982 37.1952 25.0003C37.1952 26.9021 37.1927 28.918 36.7683 30.7655ZM22.8048 20.5L29.5548 24.3971L22.8048 28.2942V20.5Z" fill="#181823"/>
</g>
</g>
</g>
<defs>
<clipPath id="clip0_45_64">
<rect width="50" height="50" fill="white"/>
</clipPath>
</defs>
</svg>
