<svg width="50" height="50" viewBox="0 0 50 50" fill="none" xmlns="http://www.w3.org/2000/svg">
<g id="194929_facebook_social media_icon 1" clip-path="url(#clip0_45_60)">
<g id="Page-1">
<g id="Facebook">
<path id="Oval-1" fill-rule="evenodd" clip-rule="evenodd" d="M25 50C38.8071 50 50 38.8071 50 25C50 11.1929 38.8071 0 25 0C11.1929 0 0 11.1929 0 25C0 38.8071 11.1929 50 25 50ZM25 47C37.1503 47 47 37.1503 47 25C47 12.8497 37.1503 3 25 3C12.8497 3 3 12.8497 3 25C3 37.1503 12.8497 47 25 47ZM26.8145 36V24.9987H30.0687L30.5 21.2076H26.8145L26.82 19.3101C26.82 18.3213 26.9207 17.7915 28.4426 17.7915H30.477V14H27.2223C23.3129 14 21.9369 15.8391 21.9369 18.9319V21.208H19.5V24.9991H21.9369V36H26.8145Z" fill="#181823"/>
</g>
</g>
</g>
<defs>
<clipPath id="clip0_45_60">
<rect width="50" height="50" fill="white"/>
</clipPath>
</defs>
</svg>
